<svg xmlns="http://www.w3.org/2000/svg" xmlns:xlink="http://www.w3.org/1999/xlink" width="500" zoomAndPan="magnify" viewBox="0 0 375 374.999991" height="500" preserveAspectRatio="xMidYMid meet" version="1.0"><defs><clipPath id="7284292167"><path d="M 246 0 L 371.25 0 L 371.25 139 L 246 139 Z M 246 0 " clip-rule="nonzero"/></clipPath><clipPath id="bb4006a537"><path d="M 3.75 285 L 94 285 L 94 375 L 3.75 375 Z M 3.75 285 " clip-rule="nonzero"/></clipPath></defs><g clip-path="url(#7284292167)"><path fill="#000000" d="M 262.085938 69.320312 C 273.925781 73.464844 284.664062 80.574219 293.078125 89.957031 C 300.355469 98.0625 305.746094 107.695312 308.917969 118.042969 C 312.078125 107.695312 317.46875 98.0625 324.746094 89.957031 C 333.171875 80.574219 343.910156 73.464844 355.746094 69.320312 C 343.910156 65.1875 333.171875 58.085938 324.746094 48.695312 C 317.46875 40.589844 312.078125 30.957031 308.917969 20.609375 C 305.746094 30.957031 300.355469 40.589844 293.078125 48.695312 C 284.664062 58.085938 273.925781 65.1875 262.085938 69.320312 Z M 308.917969 138.40625 C 307.269531 138.40625 305.902344 137.128906 305.796875 135.480469 C 304.832031 120.207031 298.65625 105.523438 288.4375 94.132812 C 278.214844 82.730469 264.28125 75.015625 249.195312 72.402344 C 247.703125 72.148438 246.609375 70.84375 246.609375 69.320312 C 246.609375 67.808594 247.703125 66.511719 249.195312 66.25 C 264.28125 63.636719 278.214844 55.921875 288.4375 44.53125 C 298.65625 33.140625 304.832031 18.441406 305.796875 3.171875 C 305.902344 1.53125 307.269531 0.246094 308.917969 0.246094 C 310.566406 0.246094 311.921875 1.53125 312.027344 3.171875 C 313.003906 18.453125 319.167969 33.140625 329.398438 44.53125 C 339.617188 55.921875 353.554688 63.636719 368.628906 66.25 C 370.132812 66.511719 371.226562 67.808594 371.226562 69.320312 C 371.226562 70.84375 370.132812 72.148438 368.628906 72.402344 C 353.554688 75.015625 339.617188 82.730469 329.398438 94.132812 C 319.167969 105.511719 313.003906 120.207031 312.027344 135.480469 C 311.921875 137.128906 310.566406 138.40625 308.917969 138.40625 " fill-opacity="1" fill-rule="nonzero"/></g><g clip-path="url(#bb4006a537)"><path fill="#000000" d="M 19.019531 330.019531 C 26.195312 332.75 32.699219 336.886719 37.949219 342.144531 C 42.589844 346.777344 46.160156 352.1875 48.507812 358.019531 C 50.851562 352.1875 54.429688 346.777344 59.0625 342.144531 C 64.316406 336.886719 70.824219 332.75 78 330.019531 C 70.824219 327.289062 64.316406 323.15625 59.0625 317.898438 C 54.429688 313.265625 50.851562 307.855469 48.507812 302.023438 C 46.160156 307.855469 42.589844 313.265625 37.949219 317.898438 C 32.699219 323.15625 26.195312 327.28125 19.019531 330.019531 Z M 48.507812 374.746094 C 46.871094 374.746094 45.515625 373.488281 45.398438 371.847656 C 44.734375 362.527344 40.523438 353.542969 33.539062 346.550781 C 26.488281 339.5 16.851562 334.730469 6.417969 333.101562 C 4.898438 332.867188 3.773438 331.5625 3.773438 330.019531 C 3.773438 328.480469 4.898438 327.171875 6.417969 326.9375 C 16.851562 325.3125 26.488281 320.53125 33.539062 313.480469 C 40.523438 306.5 44.734375 297.515625 45.398438 288.191406 C 45.515625 286.554688 46.871094 285.285156 48.507812 285.285156 C 50.148438 285.285156 51.503906 286.554688 51.621094 288.191406 C 52.285156 297.515625 56.496094 306.5 63.480469 313.480469 C 70.53125 320.53125 80.164062 325.3125 90.601562 326.9375 C 92.113281 327.171875 93.234375 328.480469 93.234375 330.019531 C 93.234375 331.5625 92.113281 332.867188 90.601562 333.101562 C 80.164062 334.730469 70.53125 339.5 63.480469 346.550781 C 56.496094 353.542969 52.285156 362.527344 51.621094 371.847656 C 51.503906 373.488281 50.148438 374.746094 48.507812 374.746094 " fill-opacity="1" fill-rule="nonzero"/></g><path fill="#000000" d="M 252.195312 351.144531 C 250.597656 351.144531 248.96875 350.949219 247.320312 350.519531 C 237.746094 348.042969 232.261719 338.875 230.332031 331.121094 C 228.675781 324.539062 228.8125 317.820312 228.9375 311.324219 C 228.96875 309.785156 228.996094 308.242188 229.007812 306.703125 C 229.085938 286.835938 224.929688 266.71875 216.980469 248.5 C 212.847656 239.03125 208.359375 234.046875 202.871094 232.839844 C 193.429688 230.78125 184.894531 241.148438 180.476562 250.664062 C 172.101562 268.757812 168.074219 288.867188 168.835938 308.800781 L 168.941406 311.34375 C 169.4375 322.980469 170.015625 336.15625 160.789062 344.328125 C 156.46875 348.160156 150.820312 349.847656 144.480469 349.253906 C 136.40625 348.472656 128.285156 343.9375 123.261719 337.394531 C 115.304688 327.015625 113.402344 313.917969 111.566406 301.25 L 111.429688 300.316406 C 106.292969 264.886719 99.144531 234.535156 89.578125 207.53125 C 86.828125 199.789062 83.765625 191.984375 80.800781 184.4375 C 75.132812 170.003906 69.28125 155.074219 65.3125 139.734375 C 58.105469 111.792969 58.808594 87.402344 67.410156 67.234375 C 78.050781 42.238281 102.089844 25.765625 125.816406 27.152344 C 139.304688 27.933594 151.398438 34.230469 163.089844 40.328125 C 174.441406 46.246094 185.167969 51.824219 196.890625 52.644531 C 209.929688 53.5625 221.535156 46.832031 233.832031 39.710938 C 243.226562 34.28125 252.9375 28.652344 263.675781 26.390625 C 275.5625 23.875 288.71875 25.914062 300.6875 32.136719 C 302.21875 32.933594 302.8125 34.816406 302.011719 36.347656 C 301.222656 37.878906 299.332031 38.472656 297.808594 37.675781 C 287.121094 32.117188 275.457031 30.28125 264.964844 32.496094 C 255.199219 34.554688 245.925781 39.925781 236.953125 45.117188 C 224.394531 52.390625 211.394531 59.898438 196.453125 58.875 C 183.433594 57.960938 171.625 51.816406 160.203125 45.867188 C 148.578125 39.808594 137.605469 34.085938 125.457031 33.382812 C 104.253906 32.097656 82.777344 47.066406 73.144531 69.683594 C 65.097656 88.550781 64.492188 111.597656 71.347656 138.171875 C 75.230469 153.152344 81.015625 167.898438 86.613281 182.15625 C 89.597656 189.753906 92.679688 197.601562 95.457031 205.445312 C 105.171875 232.847656 112.40625 263.578125 117.605469 299.417969 L 117.742188 300.363281 C 119.46875 312.234375 121.242188 324.511719 128.214844 333.601562 C 132.15625 338.730469 138.765625 342.4375 145.078125 343.03125 C 148.265625 343.34375 152.871094 343 156.652344 339.65625 C 163.644531 333.464844 163.167969 322.355469 162.699219 311.617188 L 162.59375 309.035156 C 161.792969 288.113281 166.023438 267.03125 174.8125 248.03125 C 180.46875 235.871094 191.15625 223.886719 204.214844 226.742188 C 214.210938 228.949219 219.554688 238.789062 222.695312 246.003906 C 230.996094 265.003906 235.324219 286.007812 235.246094 306.730469 C 235.238281 308.300781 235.207031 309.871094 235.179688 311.441406 C 235.050781 317.8125 234.925781 323.828125 236.378906 329.613281 C 237.8125 335.355469 241.949219 342.679688 248.882812 344.472656 C 258.996094 347.078125 268.835938 336.816406 273.710938 326.179688 C 280.917969 310.417969 283.355469 292.640625 285.707031 275.4375 C 287.003906 265.949219 288.347656 256.128906 290.476562 246.617188 C 294.882812 226.910156 302.773438 208.039062 310.410156 189.78125 L 313.324219 182.789062 C 321.585938 162.894531 329.875 141.613281 332.546875 119.371094 C 333.960938 107.558594 333.589844 96.167969 331.445312 85.519531 C 331.101562 83.832031 332.195312 82.183594 333.882812 81.84375 C 335.570312 81.492188 337.21875 82.59375 337.558594 84.289062 C 339.839844 95.585938 340.242188 107.636719 338.75 120.109375 C 335.980469 143.144531 327.523438 164.894531 319.089844 185.1875 L 316.171875 192.191406 C 308.644531 210.195312 300.851562 228.8125 296.570312 247.984375 C 294.492188 257.238281 293.167969 266.921875 291.890625 276.285156 C 289.480469 293.9375 286.984375 312.175781 279.386719 328.773438 C 274.003906 340.523438 263.859375 351.144531 252.195312 351.144531 " fill-opacity="1" fill-rule="nonzero"/><path fill="#000000" d="M 96.753906 102.285156 C 95.144531 102.285156 93.78125 101.046875 93.644531 99.40625 C 92.765625 88.4375 98.5 77.230469 107.921875 71.523438 C 109.394531 70.628906 111.316406 71.105469 112.203125 72.578125 C 113.097656 74.050781 112.632812 75.972656 111.148438 76.859375 C 103.707031 81.375 99.171875 90.230469 99.867188 98.910156 C 100.011719 100.625 98.722656 102.136719 97.007812 102.273438 C 96.921875 102.273438 96.84375 102.285156 96.753906 102.285156 " fill-opacity="1" fill-rule="nonzero"/><path fill="#000000" d="M 120.199219 194.445312 C 119.164062 194.445312 118.152344 193.925781 117.554688 192.992188 C 106.839844 176.070312 99.261719 156.722656 95.652344 137.023438 C 95.339844 135.324219 96.472656 133.695312 98.160156 133.382812 C 99.855469 133.0625 101.484375 134.195312 101.796875 135.890625 C 105.257812 154.820312 112.535156 173.40625 122.832031 189.644531 C 123.757812 191.109375 123.320312 193.03125 121.867188 193.957031 C 121.351562 194.289062 120.773438 194.445312 120.199219 194.445312 " fill-opacity="1" fill-rule="nonzero"/></svg>