<svg xmlns="http://www.w3.org/2000/svg" xmlns:xlink="http://www.w3.org/1999/xlink" width="500" zoomAndPan="magnify" viewBox="0 0 375 374.999991" height="500" preserveAspectRatio="xMidYMid meet" version="1.0"><defs><clipPath id="61215b9230"><path d="M 15.46875 76 L 299 76 L 299 375 L 15.46875 375 Z M 15.46875 76 " clip-rule="nonzero"/></clipPath><clipPath id="3b2ba748bc"><path d="M 255 12 L 359.71875 12 L 359.71875 117 L 255 117 Z M 255 12 " clip-rule="nonzero"/></clipPath></defs><g clip-path="url(#61215b9230)"><path fill="#000000" d="M 219.503906 76.632812 C 204.441406 76.632812 193.742188 81.675781 184.300781 86.125 C 175.746094 90.15625 167.667969 93.964844 156.785156 93.96875 C 145.898438 93.964844 137.820312 90.15625 129.265625 86.128906 C 119.828125 81.675781 109.125 76.632812 94.0625 76.632812 C 50.746094 76.632812 15.5 111.859375 15.5 155.15625 C 15.5 174.359375 22.121094 189.519531 28.523438 204.183594 C 34.488281 217.835938 40.121094 230.734375 40.8125 246.890625 C 40.960938 250.339844 41.09375 253.953125 41.230469 257.6875 C 42.953125 305.164062 45.308594 370.1875 89.867188 374.914062 C 90.433594 374.972656 90.984375 375 91.535156 375 C 91.539062 375 91.539062 375 91.539062 375 C 107.527344 374.996094 113.90625 352.628906 121.289062 326.726562 C 129.09375 299.324219 137.945312 268.269531 156.976562 267.675781 C 175.621094 268.269531 184.472656 299.324219 192.277344 326.726562 C 199.660156 352.628906 206.027344 375 222.023438 375 C 222.023438 375 222.027344 375 222.035156 375 C 222.578125 375 223.140625 374.972656 223.699219 374.914062 C 268.253906 370.1875 270.617188 305.175781 272.339844 257.703125 C 272.476562 253.964844 272.605469 250.347656 272.757812 246.890625 C 273.449219 230.734375 279.082031 217.835938 285.046875 204.179688 C 291.453125 189.519531 298.070312 174.359375 298.070312 155.15625 C 298.070312 111.859375 262.824219 76.632812 219.503906 76.632812 Z M 273.519531 199.148438 C 267.355469 213.261719 260.984375 227.851562 260.1875 246.355469 C 260.039062 249.832031 259.910156 253.480469 259.769531 257.246094 C 258.214844 300.121094 256.082031 358.839844 222.371094 362.414062 L 222.027344 362.429688 C 215.527344 362.433594 209.078125 339.804688 204.371094 323.285156 C 195.386719 291.742188 185.199219 255.996094 157.371094 255.113281 L 156.683594 255.105469 C 156.652344 255.109375 156.226562 255.113281 156.1875 255.117188 C 128.367188 255.996094 118.179688 291.746094 109.191406 323.285156 C 104.480469 339.800781 98.039062 362.414062 91.203125 362.414062 C 91.199219 362.414062 91.199219 362.414062 91.191406 362.414062 C 57.484375 358.839844 55.347656 300.113281 53.796875 257.234375 C 53.660156 253.472656 53.527344 249.832031 53.378906 246.355469 C 52.585938 227.855469 46.210938 213.265625 40.050781 199.15625 C 33.894531 185.054688 28.074219 171.738281 28.074219 155.15625 C 28.074219 118.789062 57.679688 89.203125 94.0625 89.203125 C 106.308594 89.203125 114.851562 93.234375 123.902344 97.5 C 133.332031 101.941406 143.082031 106.539062 156.785156 106.542969 C 170.488281 106.539062 180.238281 101.941406 189.667969 97.496094 C 198.714844 93.234375 207.261719 89.203125 219.503906 89.203125 C 255.890625 89.203125 285.492188 118.789062 285.492188 155.15625 C 285.492188 171.734375 279.675781 185.050781 273.519531 199.148438 Z M 273.519531 199.148438 " fill-opacity="1" fill-rule="nonzero"/></g><path fill="#000000" d="M 94.0625 115.15625 C 72 115.15625 54.046875 133.101562 54.046875 155.152344 C 54.046875 165.769531 57.773438 174.84375 63.855469 188.769531 C 66.011719 193.710938 68.460938 199.308594 70.691406 205.257812 C 71.636719 207.78125 74.03125 209.335938 76.578125 209.335938 C 77.3125 209.335938 78.054688 209.207031 78.785156 208.9375 C 82.035156 207.71875 83.683594 204.097656 82.464844 200.84375 C 80.117188 194.585938 77.601562 188.820312 75.378906 183.742188 C 69.785156 170.933594 66.625 163.292969 66.625 155.152344 C 66.625 140.03125 78.9375 127.726562 94.0625 127.726562 C 97.535156 127.726562 100.351562 124.914062 100.351562 121.441406 C 100.351562 117.96875 97.535156 115.15625 94.0625 115.15625 Z M 94.0625 115.15625 " fill-opacity="1" fill-rule="nonzero"/><g clip-path="url(#3b2ba748bc)"><path fill="#000000" d="M 356.328125 60.601562 C 323.273438 53.71875 318.695312 49.144531 311.804688 16.101562 C 311.402344 14.160156 309.6875 12.765625 307.703125 12.765625 C 305.71875 12.765625 304.003906 14.160156 303.601562 16.101562 C 296.710938 49.144531 292.132812 53.71875 259.074219 60.601562 C 257.128906 61.007812 255.738281 62.71875 255.738281 64.703125 C 255.738281 66.6875 257.128906 68.402344 259.074219 68.804688 C 292.132812 75.6875 296.710938 80.265625 303.601562 113.304688 C 304.003906 115.246094 305.71875 116.640625 307.703125 116.640625 C 309.6875 116.640625 311.402344 115.246094 311.804688 113.304688 C 318.695312 80.261719 323.269531 75.6875 356.328125 68.804688 C 358.273438 68.402344 359.664062 66.6875 359.664062 64.703125 C 359.664062 62.71875 358.273438 61.007812 356.328125 60.601562 Z M 307.703125 95.019531 C 302.296875 77.519531 294.875 70.105469 277.367188 64.703125 C 294.875 59.296875 302.296875 51.882812 307.703125 34.386719 C 313.105469 51.886719 320.523438 59.300781 338.035156 64.703125 C 320.523438 70.105469 313.105469 77.519531 307.703125 95.019531 Z M 307.703125 95.019531 " fill-opacity="1" fill-rule="nonzero"/></g><path fill="#000000" d="M 121.796875 43.125 C 145.503906 48.0625 148.460938 51.011719 153.402344 74.710938 C 153.804688 76.652344 155.515625 78.046875 157.503906 78.046875 C 159.488281 78.046875 161.203125 76.652344 161.605469 74.710938 C 166.546875 51.011719 169.503906 48.0625 193.210938 43.125 C 195.15625 42.71875 196.546875 41.007812 196.546875 39.023438 C 196.546875 37.039062 195.15625 35.324219 193.210938 34.921875 C 169.503906 29.980469 166.546875 27.03125 161.605469 3.332031 C 161.203125 1.394531 159.488281 0 157.503906 0 C 155.515625 0 153.804688 1.394531 153.402344 3.335938 C 148.460938 27.03125 145.503906 29.984375 121.796875 34.921875 C 119.851562 35.328125 118.457031 37.039062 118.457031 39.023438 C 118.460938 41.007812 119.851562 42.71875 121.796875 43.125 Z M 157.503906 20.378906 C 161.160156 30.269531 166.261719 35.371094 176.160156 39.023438 C 166.257812 42.675781 161.160156 47.773438 157.503906 57.667969 C 153.847656 47.769531 148.75 42.675781 138.847656 39.023438 C 148.746094 35.367188 153.847656 30.269531 157.503906 20.378906 Z M 157.503906 20.378906 " fill-opacity="1" fill-rule="nonzero"/></svg>