<svg xmlns="http://www.w3.org/2000/svg" xmlns:xlink="http://www.w3.org/1999/xlink" width="1366" zoomAndPan="magnify" viewBox="0 0 1024.5 576" height="768" preserveAspectRatio="xMidYMid meet" version="1.0"><defs><clipPath id="fbf3e1a56b"><path d="M 16.652344 11.246094 L 1007.667969 11.246094 L 1007.667969 564.472656 L 16.652344 564.472656 Z M 16.652344 11.246094 " clip-rule="nonzero"/></clipPath><clipPath id="2211ca3368"><path d="M 63.878906 11.246094 L 960.113281 11.246094 C 972.636719 11.246094 984.652344 16.222656 993.507812 25.078125 C 1002.363281 33.933594 1007.339844 45.945312 1007.339844 58.472656 L 1007.339844 517.527344 C 1007.339844 543.609375 986.195312 564.753906 960.113281 564.753906 L 63.878906 564.753906 C 37.796875 564.753906 16.652344 543.609375 16.652344 517.527344 L 16.652344 58.472656 C 16.652344 32.390625 37.796875 11.246094 63.878906 11.246094 Z M 63.878906 11.246094 " clip-rule="nonzero"/></clipPath></defs><g clip-path="url(#fbf3e1a56b)"><g clip-path="url(#2211ca3368)"><path stroke-linecap="butt" transform="matrix(0.749634, 0, 0, 0.749634, 16.651339, 11.245775)" fill="none" stroke-linejoin="miter" d="M 63.000824 0.000424668 L 1258.563242 0.000424668 C 1275.269308 0.000424668 1291.297961 6.63908 1303.111016 18.452135 C 1314.92407 30.265189 1321.562726 46.288631 1321.562726 62.999909 L 1321.562726 675.371569 C 1321.562726 710.164584 1293.356257 738.371053 1258.563242 738.371053 L 63.000824 738.371053 C 28.207809 738.371053 0.00133992 710.164584 0.00133992 675.371569 L 0.00133992 62.999909 C 0.00133992 28.206893 28.207809 0.000424668 63.000824 0.000424668 Z M 63.000824 0.000424668 " stroke="#ffffff" stroke-width="8" stroke-opacity="1" stroke-miterlimit="4"/></g></g></svg>